<?xml version="1.0" encoding="utf-8"?>
<!-- Generator: Adobe Illustrator 15.0.2, SVG Export Plug-In . SVG Version: 6.00 Build 0)  -->
<!DOCTYPE svg PUBLIC "-//W3C//DTD SVG 1.1//EN" "http://www.w3.org/Graphics/SVG/1.1/DTD/svg11.dtd">
<svg version="1.1" id="Layer_1" xmlns="http://www.w3.org/2000/svg" xmlns:xlink="http://www.w3.org/1999/xlink" x="0px" y="0px"
	 width="32px" height="32px" viewBox="0 0 32 32" enable-background="new 0 0 32 32" xml:space="preserve">
<path fill-rule="evenodd" clip-rule="evenodd" fill="#191717" d="M15.999,0C7.164,0,0,7.182,0,16.045
	c0,7.087,4.584,13.101,10.942,15.224c0.799,0.145,1.092-0.35,1.092-0.773c0-0.381-0.014-1.389-0.021-2.73
	c-4.451,0.971-5.39-2.15-5.39-2.15c-0.727-1.854-1.776-2.346-1.776-2.346c-1.453-0.998,0.11-0.977,0.11-0.977
	c1.605,0.113,2.451,1.652,2.451,1.652c1.428,2.453,3.744,1.746,4.656,1.336c0.146-1.039,0.559-1.746,1.016-2.146
	c-3.553-0.404-7.288-1.781-7.288-7.93c0-1.75,0.624-3.184,1.647-4.304c-0.165-0.406-0.714-2.038,0.156-4.246
	c0,0,1.344-0.432,4.4,1.645C13.271,7.943,14.64,7.765,16,7.759c1.358,0.005,2.727,0.184,4.005,0.54
	c3.054-2.077,4.396-1.645,4.396-1.645c0.872,2.208,0.325,3.84,0.158,4.246c1.027,1.12,1.644,2.554,1.644,4.304
	c0,6.166-3.739,7.52-7.304,7.918c0.575,0.494,1.087,1.475,1.087,2.971c0,2.145-0.021,3.875-0.021,4.402
	c0,0.428,0.288,0.928,1.102,0.77c6.351-2.123,10.932-8.135,10.932-15.22C31.999,7.182,24.836,0,15.999,0z"/>
</svg>
