<?xml version="1.0" encoding="utf-8"?>
<!-- Generator: Adobe Illustrator 15.0.2, SVG Export Plug-In . SVG Version: 6.00 Build 0)  -->
<!DOCTYPE svg PUBLIC "-//W3C//DTD SVG 1.1//EN" "http://www.w3.org/Graphics/SVG/1.1/DTD/svg11.dtd">
<svg version="1.1" id="Layer_1" xmlns="http://www.w3.org/2000/svg" xmlns:xlink="http://www.w3.org/1999/xlink" x="0px" y="0px"
	 width="120px" height="120px" viewBox="0 0 120 120" enable-background="new 0 0 120 120" xml:space="preserve">
<path fill-rule="evenodd" clip-rule="evenodd" fill="#663399" d="M60.091,1.979c-32.523,0-58.897,26.37-58.897,58.905
	c0,26.021,16.875,48.097,40.283,55.886c2.945,0.541,4.02-1.279,4.02-2.838c0-1.398-0.051-5.104-0.079-10.021
	c-16.385,3.562-19.841-7.895-19.841-7.895c-2.68-6.803-6.54-8.614-6.54-8.614c-5.348-3.655,0.404-3.582,0.404-3.582
	c5.911,0.417,9.022,6.071,9.022,6.071c5.256,9,13.785,6.402,17.141,4.894c0.535-3.808,2.057-6.403,3.739-7.874
	c-13.078-1.486-26.829-6.54-26.829-29.111c0-6.43,2.294-11.689,6.062-15.805c-0.605-1.491-2.627-7.479,0.578-15.589
	c0,0,4.946-1.583,16.196,6.039c4.7-1.306,9.738-1.959,14.748-1.982c5,0.022,10.04,0.676,14.746,1.982
	c11.243-7.622,16.181-6.039,16.181-6.039c3.214,8.11,1.195,14.098,0.588,15.589c3.774,4.116,6.05,9.375,6.05,15.805
	c0,22.629-13.771,27.607-26.893,29.064c2.119,1.819,4.002,5.416,4.002,10.908c0,7.874-0.075,14.226-0.075,16.159
	c0,1.576,1.062,3.409,4.054,2.829c23.383-7.801,40.245-29.863,40.245-55.877C118.996,28.348,92.622,1.979,60.091,1.979z"/>
</svg>
