<?xml version="1.0" encoding="utf-8"?>
<!-- Generator: Adobe Illustrator 15.0.2, SVG Export Plug-In . SVG Version: 6.00 Build 0)  -->
<!DOCTYPE svg PUBLIC "-//W3C//DTD SVG 1.1//EN" "http://www.w3.org/Graphics/SVG/1.1/DTD/svg11.dtd">
<svg version="1.1" id="Layer_1" xmlns="http://www.w3.org/2000/svg" xmlns:xlink="http://www.w3.org/1999/xlink" x="0px" y="0px"
	 width="41.596px" height="32px" viewBox="0 0 41.596 32" enable-background="new 0 0 41.596 32" xml:space="preserve">
<g>
	<g>
		<g>
			<path d="M29.587-0.009H2.314c-1.302,0-2.359,1.033-2.359,2.306v27.387c0,1.274,1.057,2.307,2.359,2.307h27.272
				c1.305,0,2.368-1.032,2.368-2.307V2.297C31.955,1.024,30.892-0.009,29.587-0.009z M9.448,27.26H4.696V11.989h4.752V27.26z
				 M7.073,9.9c-1.524,0-2.754-1.232-2.754-2.753c0-1.518,1.23-2.75,2.754-2.75c1.518,0,2.751,1.233,2.751,2.75
				C9.825,8.668,8.591,9.9,7.073,9.9z M27.221,27.26h-4.739v-7.424c0-1.774-0.036-4.051-2.469-4.051
				c-2.471,0-2.847,1.928-2.847,3.919v7.556h-4.742V11.989h4.551v2.086h0.064c0.633-1.201,2.184-2.467,4.491-2.467
				c4.803,0,5.69,3.162,5.69,7.277V27.26z"/>
		</g>
	</g>
	<g>
		<polygon points="34.077,23.859 35.169,23.859 35.169,27.26 35.763,27.26 35.763,23.859 36.852,23.859 36.852,23.267 
			34.077,23.267 		"/>
		<polygon points="40.708,23.267 39.543,26.197 38.381,23.267 37.536,23.267 37.536,27.26 38.125,27.26 38.125,24.22 39.349,27.26 
			39.742,27.26 40.964,24.22 40.964,27.26 41.555,27.26 41.555,23.267 		"/>
	</g>
</g>
</svg>
