<?xml version="1.0" encoding="utf-8"?>
<!-- Generator: Adobe Illustrator 15.0.2, SVG Export Plug-In . SVG Version: 6.00 Build 0)  -->
<!DOCTYPE svg PUBLIC "-//W3C//DTD SVG 1.1//EN" "http://www.w3.org/Graphics/SVG/1.1/DTD/svg11.dtd">
<svg version="1.1" id="Layer_1" xmlns="http://www.w3.org/2000/svg" xmlns:xlink="http://www.w3.org/1999/xlink" x="0px" y="0px"
	 width="32px" height="32px" viewBox="0 0 32 32" enable-background="new 0 0 32 32" xml:space="preserve">
<path fill="#1C2429" d="M29.254,25.256c-0.203,0-0.409-0.059-0.591-0.181c-0.488-0.327-0.618-0.988-0.292-1.477
	c0.982-1.466,1.502-3.182,1.502-4.963c0-1.782-0.52-3.499-1.501-4.964c-0.327-0.488-0.197-1.149,0.291-1.476
	c0.487-0.327,1.147-0.197,1.476,0.291C31.356,14.304,32,16.43,32,18.636c0,2.204-0.644,4.331-1.861,6.148
	C29.934,25.09,29.597,25.256,29.254,25.256"/>
<path fill="#1C2429" d="M26.211,23.528c-0.205,0-0.413-0.06-0.596-0.184c-0.486-0.33-0.613-0.991-0.283-1.479
	c0.647-0.956,0.99-2.073,0.99-3.23s-0.343-2.275-0.991-3.233c-0.329-0.486-0.201-1.148,0.285-1.478
	c0.486-0.33,1.147-0.201,1.477,0.285c0.888,1.312,1.356,2.842,1.356,4.426c0,1.585-0.469,3.114-1.356,4.425
	C26.887,23.364,26.552,23.528,26.211,23.528"/>
<path fill="#1C2429" d="M21.235,14.002c-0.42-4.262-4.028-7.604-8.403-7.604c-3.625,0-6.834,2.327-7.989,5.716
	C2.107,12.52,0,14.873,0,17.716c0,3.125,2.546,5.667,5.677,5.667h14.536c2.622,0,4.755-2.13,4.755-4.747
	C24.968,16.369,23.367,14.47,21.235,14.002 M20.213,21.255H5.677c-1.958,0-3.55-1.588-3.55-3.539c0-1.953,1.592-3.541,3.55-3.541
	c0.95,0,1.841,0.368,2.51,1.038c0.416,0.416,1.089,0.416,1.504,0s0.416-1.089,0-1.505c-0.731-0.732-1.631-1.233-2.611-1.481
	c1.01-2.22,3.25-3.7,5.752-3.7c3.483,0,6.317,2.829,6.317,6.307c0,0.677-0.106,1.341-0.316,1.975
	c-0.185,0.558,0.116,1.159,0.675,1.345c0.11,0.037,0.224,0.055,0.335,0.055c0.445,0,0.861-0.283,1.009-0.729
	c0.139-0.418,0.243-0.847,0.314-1.281c0.979,0.381,1.674,1.329,1.674,2.438C22.84,20.079,21.662,21.255,20.213,21.255"/>
</svg>
