<?xml version="1.0" encoding="utf-8"?>
<!-- Generator: Adobe Illustrator 15.0.2, SVG Export Plug-In . SVG Version: 6.00 Build 0)  -->
<!DOCTYPE svg PUBLIC "-//W3C//DTD SVG 1.1//EN" "http://www.w3.org/Graphics/SVG/1.1/DTD/svg11.dtd">
<svg version="1.1" id="Layer_1" xmlns="http://www.w3.org/2000/svg" xmlns:xlink="http://www.w3.org/1999/xlink" x="0px" y="0px"
	 width="54.426px" height="32px" viewBox="0 0 54.426 32" enable-background="new 0 0 54.426 32" xml:space="preserve">
<path fill="#1C2429" d="M49.766,32c-0.345,0-0.694-0.1-1.003-0.307c-0.828-0.555-1.049-1.677-0.495-2.506
	c1.667-2.487,2.549-5.398,2.549-8.422c0-3.024-0.882-5.937-2.547-8.423c-0.556-0.828-0.335-1.95,0.493-2.505
	c0.827-0.555,1.947-0.334,2.504,0.494c2.066,3.084,3.159,6.692,3.159,10.434c0,3.74-1.093,7.35-3.159,10.434
	C50.919,31.719,50.348,32,49.766,32"/>
<path fill="#1C2429" d="M44.602,29.068c-0.348,0-0.701-0.101-1.011-0.312c-0.825-0.56-1.041-1.682-0.48-2.509
	c1.099-1.622,1.681-3.519,1.681-5.482c0-1.963-0.582-3.86-1.683-5.486c-0.559-0.825-0.341-1.949,0.484-2.507
	c0.825-0.56,1.947-0.341,2.506,0.483c1.506,2.226,2.302,4.822,2.302,7.51c0,2.69-0.796,5.285-2.302,7.509
	C45.75,28.79,45.18,29.068,44.602,29.068"/>
<path fill="#1C2429" d="M36.159,12.903C35.447,5.67,29.323,0,21.899,0C15.748,0,10.301,3.949,8.342,9.699
	c-4.642,0.688-8.218,4.682-8.218,9.506c0,5.303,4.321,9.616,9.633,9.616h24.667c4.449,0,8.068-3.614,8.068-8.056
	C42.493,16.919,39.777,13.697,36.159,12.903 M34.424,25.211H9.757c-3.322,0-6.024-2.695-6.024-6.006
	c0-3.313,2.702-6.009,6.024-6.009c1.612,0,3.125,0.625,4.259,1.761c0.706,0.705,1.848,0.705,2.553,0
	c0.705-0.706,0.705-1.848,0-2.554c-1.241-1.242-2.769-2.093-4.431-2.513c1.713-3.767,5.515-6.278,9.761-6.278
	c5.911,0,10.721,4.801,10.721,10.702c0,1.149-0.181,2.276-0.537,3.351c-0.313,0.946,0.197,1.968,1.145,2.282
	c0.188,0.063,0.38,0.093,0.568,0.093c0.756,0,1.462-0.48,1.712-1.237c0.235-0.71,0.413-1.438,0.534-2.175
	c1.66,0.647,2.84,2.256,2.84,4.138C38.881,23.215,36.883,25.211,34.424,25.211"/>
</svg>
