<?xml version="1.0" encoding="utf-8"?>
<!-- Generator: Adobe Illustrator 15.0.2, SVG Export Plug-In . SVG Version: 6.00 Build 0)  -->
<!DOCTYPE svg PUBLIC "-//W3C//DTD SVG 1.1//EN" "http://www.w3.org/Graphics/SVG/1.1/DTD/svg11.dtd">
<svg version="1.1" id="Layer_1" xmlns="http://www.w3.org/2000/svg" xmlns:xlink="http://www.w3.org/1999/xlink" x="0px" y="0px"
	 width="32px" height="32px" viewBox="0 0 32 32" enable-background="new 0 0 32 32" xml:space="preserve">
<linearGradient id="SVGID_1_" gradientUnits="userSpaceOnUse" x1="306" y1="-353.3794" x2="306" y2="-371.6216" gradientTransform="matrix(1 0 0 -1 -290 -346)">
	<stop  offset="0" style="stop-color:#F7991D"/>
	<stop  offset="1" style="stop-color:#EF3924"/>
</linearGradient>
<path fill="url(#SVGID_1_)" d="M0.362,15.691c-0.067,0-0.12,0.052-0.128,0.125L0,17.594l0.234,1.747
	c0.009,0.073,0.062,0.125,0.128,0.125c0.065,0,0.117-0.052,0.128-0.125l0,0l0,0l0,0l0.277-1.747L0.49,15.816
	C0.48,15.743,0.427,15.691,0.362,15.691z M1.678,14.72c-0.011-0.076-0.066-0.129-0.133-0.129c-0.068,0-0.124,0.054-0.134,0.129
	c0,0.001-0.314,2.874-0.314,2.874l0.314,2.811c0.009,0.075,0.065,0.129,0.134,0.129c0.067,0,0.122-0.053,0.133-0.129l0.358-2.811
	L1.678,14.72z M6.636,12.069c-0.129,0-0.236,0.105-0.242,0.24l-0.25,5.288l0.25,3.417c0.006,0.133,0.113,0.238,0.242,0.238
	c0.128,0,0.234-0.105,0.242-0.239v0.001l0.283-3.417l-0.283-5.288C6.87,12.174,6.764,12.069,6.636,12.069z M4.07,13.906
	c-0.099,0-0.18,0.08-0.188,0.185L3.6,17.595l0.282,3.39c0.008,0.104,0.089,0.184,0.188,0.184c0.098,0,0.179-0.079,0.188-0.184
	l0.321-3.39l-0.321-3.504C4.249,13.986,4.167,13.906,4.07,13.906z M9.243,21.252c0.16,0,0.29-0.13,0.296-0.295l0.246-3.359
	l-0.245-7.04c-0.006-0.165-0.136-0.294-0.297-0.294c-0.161,0-0.292,0.129-0.296,0.294c0,0-0.218,7.039-0.218,7.039l0.218,3.36
	C8.951,21.122,9.082,21.252,9.243,21.252z M14.581,21.268c0.22,0,0.402-0.182,0.406-0.404v0.002v-0.002l0.171-3.264l-0.171-8.13
	c-0.003-0.223-0.186-0.404-0.406-0.404c-0.221,0-0.403,0.181-0.406,0.405l-0.153,8.126c0,0.006,0.153,3.269,0.153,3.269
	C14.177,21.086,14.36,21.268,14.581,21.268z M11.891,21.255c0.191,0,0.346-0.154,0.352-0.351v0.003l0.208-3.309l-0.209-7.09
	c-0.005-0.196-0.16-0.35-0.352-0.35c-0.193,0-0.347,0.153-0.352,0.35l-0.186,7.09l0.186,3.308
	C11.543,21.101,11.698,21.255,11.891,21.255z M5.348,21.224c0.114,0,0.206-0.091,0.215-0.211l0.302-3.418l-0.302-3.251
	c-0.008-0.12-0.101-0.211-0.215-0.211c-0.116,0-0.208,0.091-0.215,0.212l-0.267,3.25l0.267,3.417
	C5.14,21.133,5.232,21.224,5.348,21.224z M2.802,21.036c0.083,0,0.151-0.065,0.16-0.156l0.339-3.285l-0.339-3.411
	c-0.01-0.091-0.077-0.157-0.161-0.157c-0.084,0-0.151,0.066-0.16,0.157c0,0-0.299,3.411-0.299,3.411l0.299,3.284
	C2.65,20.971,2.717,21.036,2.802,21.036z M13.23,10.39c-0.208,0-0.375,0.166-0.379,0.377l-0.169,6.831l0.169,3.288
	c0.004,0.209,0.171,0.374,0.379,0.374c0.208,0,0.374-0.164,0.379-0.377v0.003l0.189-3.287l-0.189-6.833
	C13.604,10.556,13.438,10.39,13.23,10.39z M7.934,21.259c0.144,0,0.263-0.117,0.27-0.268l0.264-3.395l-0.264-6.496
	c-0.007-0.15-0.125-0.267-0.27-0.267c-0.145,0-0.264,0.117-0.27,0.267L7.43,17.597l0.234,3.396
	C7.67,21.142,7.789,21.259,7.934,21.259z M10.886,20.938v-0.002l0.227-3.338l-0.227-7.277c-0.005-0.181-0.148-0.323-0.324-0.323
	c-0.177,0-0.319,0.142-0.324,0.323l-0.202,7.276l0.202,3.34c0.005,0.18,0.147,0.32,0.324,0.32s0.318-0.141,0.324-0.321V20.938z
	 M28.064,13.404c-0.539,0-1.054,0.109-1.522,0.306c-0.313-3.547-3.288-6.33-6.917-6.33c-0.888,0-1.753,0.174-2.518,0.47
	c-0.297,0.115-0.376,0.233-0.379,0.463v12.492c0.003,0.241,0.19,0.441,0.426,0.466c0.01,0.001,10.84,0.006,10.91,0.006
	c2.173,0,3.936-1.762,3.936-3.937C32,15.167,30.238,13.404,28.064,13.404z M15.924,8.302c-0.236,0-0.43,0.194-0.434,0.432
	l-0.178,8.867l0.178,3.219c0.003,0.234,0.197,0.429,0.433,0.429c0.236,0,0.43-0.194,0.434-0.433v0.004l0.193-3.219l-0.193-8.867
	C16.354,8.496,16.16,8.302,15.924,8.302z M3.178,23.778c-0.465-0.108-0.591-0.167-0.591-0.352c0-0.13,0.104-0.265,0.419-0.265
	c0.269,0,0.479,0.109,0.667,0.302l0.424-0.411c-0.277-0.289-0.613-0.461-1.07-0.461c-0.58,0-1.049,0.327-1.049,0.86
	c0,0.579,0.378,0.751,0.919,0.876c0.553,0.126,0.654,0.21,0.654,0.399c0,0.222-0.164,0.319-0.512,0.319
	c-0.281,0-0.545-0.097-0.751-0.337l-0.423,0.378c0.222,0.327,0.651,0.533,1.141,0.533c0.802,0,1.154-0.378,1.154-0.936
	C4.161,24.048,3.645,23.889,3.178,23.778z M5.881,22.592c-0.801,0-1.275,0.621-1.275,1.515S5.08,25.62,5.881,25.62
	S7.157,25,7.157,24.106S6.683,22.592,5.881,22.592z M5.881,25.038c-0.474,0-0.671-0.407-0.671-0.932s0.198-0.932,0.671-0.932
	c0.475,0,0.671,0.407,0.671,0.932S6.356,25.038,5.881,25.038z M9.528,24.287c0,0.47-0.231,0.76-0.604,0.76s-0.6-0.298-0.6-0.768
	v-1.642H7.736v1.649c0,0.855,0.479,1.334,1.188,1.334c0.747,0,1.192-0.491,1.192-1.342v-1.642H9.528V24.287z M12.649,23.88
	c0,0.164,0.008,0.533,0.008,0.642c-0.038-0.075-0.134-0.222-0.205-0.331l-1.041-1.554h-0.562v2.938h0.579v-1.293
	c0-0.164-0.008-0.533-0.008-0.642c0.038,0.075,0.135,0.223,0.206,0.331l1.079,1.604h0.524v-2.938h-0.579V23.88z M14.902,22.638
	h-0.919v2.938h0.876c0.756,0,1.503-0.437,1.503-1.469C16.363,23.032,15.742,22.638,14.902,22.638z M14.86,25.005h-0.289v-1.797
	h0.311c0.621,0,0.877,0.298,0.877,0.898C15.759,24.644,15.477,25.005,14.86,25.005z M18.18,23.175c0.264,0,0.432,0.117,0.537,0.319
	l0.545-0.252c-0.185-0.382-0.521-0.65-1.074-0.65c-0.768,0-1.305,0.621-1.305,1.515c0,0.927,0.516,1.514,1.284,1.514
	c0.533,0,0.885-0.247,1.086-0.662l-0.494-0.294c-0.155,0.26-0.312,0.374-0.575,0.374c-0.44,0-0.697-0.403-0.697-0.932
	C17.486,23.561,17.739,23.175,18.18,23.175z M20.358,22.638h-0.588v2.938h1.766v-0.58h-1.178V22.638z M23.084,22.592
	c-0.802,0-1.276,0.621-1.276,1.515s0.475,1.514,1.276,1.514c0.801,0,1.275-0.62,1.275-1.514S23.885,22.592,23.084,22.592z
	 M23.084,25.038c-0.475,0-0.672-0.407-0.672-0.932s0.197-0.932,0.672-0.932c0.474,0,0.67,0.407,0.67,0.932
	S23.558,25.038,23.084,25.038z M26.729,24.287c0,0.47-0.23,0.76-0.604,0.76c-0.374,0-0.601-0.298-0.601-0.768v-1.642h-0.587v1.649
	c0,0.855,0.479,1.334,1.188,1.334c0.747,0,1.191-0.491,1.191-1.342v-1.642h-0.588V24.287z M28.971,22.638h-0.919v2.938h0.877
	c0.756,0,1.502-0.437,1.502-1.469C30.431,23.032,29.81,22.638,28.971,22.638z M28.929,25.005h-0.29v-1.797h0.312
	c0.62,0,0.876,0.298,0.876,0.898C29.826,24.644,29.545,25.005,28.929,25.005z"/>
</svg>
