<?xml version="1.0" encoding="utf-8"?>
<!-- Generator: Adobe Illustrator 15.0.2, SVG Export Plug-In . SVG Version: 6.00 Build 0)  -->
<!DOCTYPE svg PUBLIC "-//W3C//DTD SVG 1.1//EN" "http://www.w3.org/Graphics/SVG/1.1/DTD/svg11.dtd">
<svg version="1.1" id="Layer_1" xmlns="http://www.w3.org/2000/svg" xmlns:xlink="http://www.w3.org/1999/xlink" x="0px" y="0px"
	 width="56.297px" height="32px" viewBox="0 0 56.297 32" enable-background="new 0 0 56.297 32" xml:space="preserve">
<linearGradient id="SVGID_1_" gradientUnits="userSpaceOnUse" x1="318.2285" y1="-346.001" x2="318.2285" y2="-378.0005" gradientTransform="matrix(1 0 0 -1 -290 -346)">
	<stop  offset="0" style="stop-color:#F7991D"/>
	<stop  offset="1" style="stop-color:#EF3924"/>
</linearGradient>
<path fill="url(#SVGID_1_)" d="M0.797,14.581c-0.117,0-0.21,0.091-0.225,0.22l-0.41,3.119l0.41,3.064
	c0.015,0.127,0.108,0.219,0.225,0.219c0.114,0,0.206-0.092,0.225-0.219l0,0l0,0l0,0l0.486-3.064L1.022,14.8
	C1.004,14.672,0.911,14.581,0.797,14.581z M3.106,12.877c-0.019-0.134-0.116-0.226-0.233-0.226c-0.119,0-0.218,0.095-0.235,0.226
	c0,0.001-0.552,5.042-0.552,5.042l0.552,4.93c0.016,0.131,0.115,0.227,0.235,0.227c0.117,0,0.213-0.094,0.233-0.227l0.628-4.93
	L3.106,12.877z M11.803,8.227c-0.227,0-0.415,0.185-0.425,0.42l-0.439,9.276l0.439,5.994c0.011,0.232,0.198,0.418,0.425,0.418
	c0.224,0,0.411-0.186,0.424-0.42v0.002l0.497-5.994l-0.497-9.276C12.214,8.412,12.027,8.227,11.803,8.227z M7.301,11.45
	c-0.174,0-0.316,0.14-0.33,0.325L6.477,17.92l0.495,5.947c0.014,0.184,0.156,0.322,0.33,0.322c0.171,0,0.313-0.139,0.329-0.322
	l0.562-5.947L7.63,11.774C7.615,11.59,7.473,11.45,7.301,11.45z M16.375,24.336c0.28,0,0.509-0.227,0.52-0.518l0.431-5.893
	l-0.43-12.349c-0.011-0.289-0.239-0.516-0.521-0.516c-0.283,0-0.511,0.227-0.52,0.517c0,0.001-0.383,12.348-0.383,12.348
	l0.383,5.895C15.864,24.109,16.093,24.336,16.375,24.336z M25.739,24.363c0.387,0,0.705-0.318,0.712-0.709v0.004v-0.004l0.301-5.725
	L26.451,3.667c-0.006-0.391-0.325-0.709-0.712-0.709c-0.388,0-0.708,0.318-0.712,0.71l-0.269,14.255c0,0.01,0.269,5.734,0.269,5.734
	C25.032,24.045,25.353,24.363,25.739,24.363z M21.021,24.342c0.336,0,0.607-0.271,0.617-0.615v0.006l0.366-5.805L21.638,5.49
	c-0.01-0.345-0.28-0.613-0.617-0.613c-0.338,0-0.609,0.269-0.617,0.613l-0.325,12.438l0.326,5.803
	C20.412,24.07,20.683,24.342,21.021,24.342z M9.543,24.287c0.2,0,0.361-0.16,0.377-0.371l0.53-5.996l-0.53-5.702
	c-0.015-0.211-0.177-0.37-0.377-0.37c-0.203,0-0.365,0.16-0.377,0.373l-0.468,5.7l0.468,5.994
	C9.179,24.127,9.34,24.287,9.543,24.287z M5.078,23.957c0.146,0,0.265-0.113,0.281-0.273l0.595-5.764l-0.595-5.982
	c-0.017-0.16-0.135-0.275-0.282-0.275c-0.148,0-0.266,0.116-0.281,0.275c0,0.001-0.524,5.982-0.524,5.982l0.524,5.762
	C4.812,23.844,4.929,23.957,5.078,23.957z M23.371,5.282c-0.365,0-0.658,0.291-0.666,0.662l-0.296,11.983l0.296,5.768
	c0.008,0.367,0.3,0.656,0.666,0.656c0.365,0,0.656-0.287,0.665-0.66v0.004l0.333-5.766L24.036,5.943
	C24.027,5.573,23.736,5.282,23.371,5.282z M14.08,24.348c0.252,0,0.461-0.205,0.473-0.469l0.463-5.955L14.553,6.528
	C14.54,6.265,14.333,6.06,14.08,6.06c-0.254,0-0.462,0.206-0.474,0.468l-0.41,11.396l0.411,5.959
	C13.618,24.143,13.826,24.348,14.08,24.348z M19.258,23.787v-0.004l0.398-5.855L19.258,5.162c-0.009-0.317-0.259-0.566-0.569-0.566
	c-0.31,0-0.56,0.249-0.568,0.566l-0.354,12.764l0.354,5.859c0.009,0.314,0.259,0.561,0.568,0.561c0.31,0,0.559-0.246,0.569-0.562
	V23.787z M49.394,10.569c-0.946,0-1.849,0.191-2.671,0.536c-0.55-6.223-5.769-11.104-12.134-11.104
	c-1.558,0-3.075,0.306-4.417,0.825c-0.521,0.202-0.659,0.409-0.664,0.812v21.913c0.006,0.424,0.334,0.775,0.746,0.818
	c0.018,0.002,19.016,0.01,19.14,0.01c3.812,0,6.903-3.09,6.903-6.906C56.297,13.661,53.207,10.569,49.394,10.569z M28.096,1.619
	c-0.414,0-0.754,0.34-0.76,0.758l-0.312,15.555l0.312,5.646c0.005,0.41,0.346,0.752,0.76,0.752c0.415,0,0.755-0.342,0.761-0.76
	v0.008l0.338-5.646L28.856,2.376C28.851,1.959,28.51,1.619,28.096,1.619z M5.737,28.768C4.921,28.578,4.7,28.475,4.7,28.152
	c0-0.229,0.183-0.465,0.735-0.465c0.471,0,0.84,0.191,1.171,0.529l0.744-0.721c-0.486-0.508-1.075-0.809-1.876-0.809
	c-1.017,0-1.841,0.572-1.841,1.508c0,1.016,0.663,1.318,1.612,1.537c0.971,0.221,1.148,0.369,1.148,0.701
	c0,0.389-0.288,0.561-0.898,0.561c-0.493,0-0.957-0.17-1.318-0.592l-0.743,0.662C3.824,31.639,4.576,32,5.436,32
	c1.407,0,2.025-0.662,2.025-1.641C7.46,29.24,6.555,28.961,5.737,28.768z M10.479,26.688c-1.405,0-2.236,1.088-2.236,2.656
	s0.831,2.654,2.236,2.654c1.406,0,2.238-1.086,2.238-2.654S11.885,26.688,10.479,26.688z M10.479,30.979
	c-0.831,0-1.178-0.715-1.178-1.635s0.347-1.635,1.178-1.635c0.833,0,1.178,0.715,1.178,1.635S11.312,30.979,10.479,30.979z
	 M16.876,29.66c0,0.824-0.406,1.334-1.061,1.334s-1.052-0.523-1.052-1.348v-2.879h-1.031v2.893c0,1.502,0.84,2.34,2.083,2.34
	c1.311,0,2.091-0.861,2.091-2.354v-2.879h-1.03V29.66z M22.352,28.945c0,0.289,0.014,0.936,0.014,1.127
	c-0.066-0.133-0.235-0.389-0.36-0.582l-1.826-2.725h-0.986v5.154h1.016v-2.268c0-0.287-0.015-0.936-0.015-1.125
	c0.066,0.131,0.237,0.391,0.361,0.58l1.892,2.812h0.92v-5.154h-1.016V28.945z M26.304,26.768h-1.612v5.152h1.538
	c1.326,0,2.636-0.766,2.636-2.576C28.866,27.459,27.776,26.768,26.304,26.768z M26.229,30.92h-0.507v-3.152h0.545
	c1.089,0,1.539,0.523,1.539,1.576C27.806,30.285,27.312,30.92,26.229,30.92z M32.053,27.709c0.463,0,0.758,0.205,0.942,0.561
	l0.956-0.441c-0.323-0.67-0.913-1.141-1.885-1.141c-1.346,0-2.288,1.088-2.288,2.656c0,1.625,0.904,2.654,2.253,2.654
	c0.935,0,1.552-0.432,1.904-1.16l-0.866-0.516c-0.272,0.455-0.547,0.656-1.01,0.656c-0.772,0-1.223-0.709-1.223-1.635
	C30.837,28.387,31.28,27.709,32.053,27.709z M35.875,26.768h-1.031v5.152h3.098v-1.018h-2.066V26.768z M40.656,26.688
	c-1.406,0-2.239,1.088-2.239,2.656s0.833,2.654,2.239,2.654c1.405,0,2.237-1.086,2.237-2.654S42.062,26.688,40.656,26.688z
	 M40.656,30.979c-0.832,0-1.179-0.715-1.179-1.635s0.347-1.635,1.179-1.635c0.831,0,1.176,0.715,1.176,1.635
	S41.487,30.979,40.656,30.979z M47.052,29.66c0,0.824-0.404,1.334-1.059,1.334c-0.656,0-1.054-0.523-1.054-1.348v-2.879h-1.03v2.893
	c0,1.502,0.84,2.34,2.084,2.34c1.311,0,2.09-0.861,2.09-2.354v-2.879h-1.031V29.66z M50.983,26.768h-1.612v5.152h1.538
	c1.326,0,2.635-0.766,2.635-2.576C53.544,27.459,52.454,26.768,50.983,26.768z M50.909,30.92H50.4v-3.152h0.547
	c1.088,0,1.536,0.523,1.536,1.576C52.483,30.285,51.99,30.92,50.909,30.92z"/>
</svg>
