<?xml version="1.0" encoding="utf-8"?>
<!-- Generator: Adobe Illustrator 15.0.2, SVG Export Plug-In . SVG Version: 6.00 Build 0)  -->
<!DOCTYPE svg PUBLIC "-//W3C//DTD SVG 1.1//EN" "http://www.w3.org/Graphics/SVG/1.1/DTD/svg11.dtd">
<svg version="1.1" id="Layer_1" xmlns="http://www.w3.org/2000/svg" xmlns:xlink="http://www.w3.org/1999/xlink" x="0px" y="0px"
	 width="32px" height="32px" viewBox="0 0 32 32" enable-background="new 0 0 32 32" xml:space="preserve">
<path fill="#1A1616" d="M16.026-0.025c-8.836,0-16,7.164-16,16c0,8.838,7.164,16.001,16,16.001c8.837,0,16-7.163,16-16.001
	C32.026,7.139,24.863-0.025,16.026-0.025 M23.364,23.053c-0.288,0.472-0.901,0.619-1.371,0.332
	c-3.758-2.297-8.487-2.815-14.057-1.543c-0.537,0.123-1.072-0.213-1.194-0.75c-0.123-0.536,0.212-1.071,0.75-1.194
	c6.095-1.393,11.323-0.793,15.541,1.784C23.503,21.969,23.651,22.583,23.364,23.053 M25.321,18.696
	c-0.361,0.587-1.129,0.771-1.716,0.41c-4.299-2.643-10.856-3.409-15.943-1.864c-0.66,0.199-1.356-0.173-1.557-0.831
	c-0.198-0.66,0.173-1.355,0.832-1.556c5.811-1.764,13.036-0.91,17.974,2.125C25.498,17.342,25.683,18.11,25.321,18.696
	 M25.49,14.159c-5.157-3.062-13.665-3.344-18.588-1.85c-0.791,0.24-1.627-0.207-1.867-0.997c-0.239-0.791,0.207-1.626,0.998-1.867
	c5.652-1.716,15.048-1.384,20.985,2.14c0.711,0.422,0.944,1.341,0.522,2.051C27.119,14.347,26.2,14.582,25.49,14.159"/>
</svg>
